# xmcd
#
# Track frame offsets:
# 150
# 3064
# 17187
# 22240
# 27941
# 36416
# 46803
# 53558
# 57130
# 61264
# 65740
# 85223
# 94644
# 107458
# 116171
# 135581
# 138299
# 146484
# 155320
# 163915
# 176656
# 181095
# 188335
#
# Disc length: 2640 seconds
#
# Revision: 0
# Processed by: cddbd v1.5.1PL2 Copyright (c) Steve Scherf et al.
# Submitted via: Audion 3.0.2 (http://www.panic.com/audion/)
#
DISCID=2b0a4e17
DTITLE=Editus - Poetica
DYEAR=1900
DGENRE=
TTITLE0=Maestro de poesia
TTITLE1=Los que escriben
TTITLE2=Mi libro
TTITLE3=Amigas
TTITLE4=Soy hembra
TTITLE5=Si pudiera abrir mi gruesa flor
TTITLE6=Ritmico salitre
TTITLE7=Nostalgia
TTITLE8=Bienaventurados los dulces
TTITLE9=Cada hora
TTITLE10=La ofrenda
TTITLE11=El primer beso
TTITLE12=La banca
TTITLE13=Otredad
TTITLE14=Canto para los ninos sin infancia
TTITLE15=Si dios naciera
TTITLE16=Nocturno sin patria
TTITLE17=Paz
TTITLE18=Tropico verde
TTITLE19=Humedales
TTITLE20=Campanario pleno
TTITLE21=La espera
TTITLE22=Epitafio
EXTD=
EXTT0=
EXTT1=
EXTT2=
EXTT3=
EXTT4=
EXTT5=
EXTT6=
EXTT7=
EXTT8=
EXTT9=
EXTT10=
EXTT11=
EXTT12=
EXTT13=
EXTT14=
EXTT15=
EXTT16=
EXTT17=
EXTT18=
EXTT19=
EXTT20=
EXTT21=
EXTT22=
PLAYORDER=
